<svg width="762pt" height="899pt" viewBox="0.00 0.00 762.00 899.00" xmlns="http://www.w3.org/2000/svg" xmlns:xlink="http://www.w3.org/1999/xlink">
<g id="graph0" class="graph" transform="scale(1 1) rotate(0) translate(4 894.6)">
<title>ALBUM</title>
<polygon fill="white" stroke="none" points="-4,4 -4,-894.6 757.53,-894.6 757.53,4 -4,4"/>
<!-- ALBUM -->
<g id="node1" class="node">
<title>ALBUM</title>
<polygon fill="none" stroke="black" points="57.09,-536.3 57.09,-661.1 204.85,-661.1 204.85,-536.3 57.09,-536.3"/>
<text xml:space="preserve" text-anchor="middle" x="130.97" y="-644.5" font-family="Times,serif" font-size="14.00">ALBUM</text>
<polyline fill="none" stroke="black" points="57.09,-636.3 204.85,-636.3"/>
<text xml:space="preserve" text-anchor="start" x="65.09" y="-619.7" font-family="Times,serif" font-size="14.00">title : varchar(200)</text>
<text xml:space="preserve" text-anchor="start" x="65.09" y="-602.9" font-family="Times,serif" font-size="14.00"> artist_id : int</text>
<text xml:space="preserve" text-anchor="start" x="65.09" y="-586.1" font-family="Times,serif" font-size="14.00"> release_date : datetime</text>
<text xml:space="preserve" text-anchor="start" x="65.09" y="-569.3" font-family="Times,serif" font-size="14.00"> genre : varchar(100)</text>
<polyline fill="none" stroke="black" points="57.09,-561.1 204.85,-561.1"/>
<text xml:space="preserve" text-anchor="start" x="65.09" y="-544.5" font-family="Times,serif" font-size="14.00">id : int</text>
</g>
<!-- ARTIST -->
<g id="node3" class="node">
<title>ARTIST</title>
<polygon fill="none" stroke="black" points="174.34,-340.9 174.34,-465.7 339.6,-465.7 339.6,-340.9 174.34,-340.9"/>
<text xml:space="preserve" text-anchor="middle" x="256.97" y="-449.1" font-family="Times,serif" font-size="14.00">ARTIST</text>
<polyline fill="none" stroke="black" points="174.34,-440.9 339.6,-440.9"/>
<text xml:space="preserve" text-anchor="start" x="182.34" y="-424.3" font-family="Times,serif" font-size="14.00">stage_name : varchar(200)</text>
<text xml:space="preserve" text-anchor="start" x="182.34" y="-407.5" font-family="Times,serif" font-size="14.00"> bio : text</text>
<text xml:space="preserve" text-anchor="start" x="182.34" y="-390.7" font-family="Times,serif" font-size="14.00"> country : varchar(100)</text>
<text xml:space="preserve" text-anchor="start" x="182.34" y="-373.9" font-family="Times,serif" font-size="14.00"> genre : varchar(100)</text>
<polyline fill="none" stroke="black" points="174.34,-365.7 339.6,-365.7"/>
<text xml:space="preserve" text-anchor="start" x="182.34" y="-349.1" font-family="Times,serif" font-size="14.00">user_id : int</text>
</g>
<!-- ALBUM&#45;&gt;ARTIST -->
<g id="edge1" class="edge">
<title>ALBUM-&gt;ARTIST</title>
<path fill="none" stroke="#595959" d="M189.59,-536.07C189.59,-536.07 189.59,-477.43 189.59,-477.43"/>
<polygon fill="#595959" stroke="#595959" points="193.09,-477.43 189.59,-467.43 186.09,-477.43 193.09,-477.43"/>
<text xml:space="preserve" text-anchor="middle" x="239.46" y="-488.4" font-family="Times,serif" font-size="14.00">artist_id:user_id</text>
</g>
<!-- ANGAJAT -->
<g id="node2" class="node">
<title>ANGAJAT</title>
<polygon fill="none" stroke="black" points="0,-340.9 0,-465.7 155.94,-465.7 155.94,-340.9 0,-340.9"/>
<text xml:space="preserve" text-anchor="middle" x="77.97" y="-449.1" font-family="Times,serif" font-size="14.00">ANGAJAT</text>
<polyline fill="none" stroke="black" points="0,-440.9 155.94,-440.9"/>
<text xml:space="preserve" text-anchor="start" x="8" y="-424.3" font-family="Times,serif" font-size="14.00">full_name : varchar(200)</text>
<text xml:space="preserve" text-anchor="start" x="8" y="-407.5" font-family="Times,serif" font-size="14.00"> salary : int</text>
<text xml:space="preserve" text-anchor="start" x="8" y="-390.7" font-family="Times,serif" font-size="14.00"> hire_date : datetime</text>
<text xml:space="preserve" text-anchor="start" x="8" y="-373.9" font-family="Times,serif" font-size="14.00"> end_date : datetime</text>
<polyline fill="none" stroke="black" points="0,-365.7 155.94,-365.7"/>
<text xml:space="preserve" text-anchor="start" x="8" y="-349.1" font-family="Times,serif" font-size="14.00">user_id : int</text>
</g>
<!-- USER -->
<g id="node10" class="node">
<title>USER</title>
<polygon fill="none" stroke="black" points="281.86,-128.7 281.86,-287.1 470.08,-287.1 470.08,-128.7 281.86,-128.7"/>
<text xml:space="preserve" text-anchor="middle" x="375.97" y="-270.5" font-family="Times,serif" font-size="14.00">USER</text>
<polyline fill="none" stroke="black" points="281.86,-262.3 470.08,-262.3"/>
<text xml:space="preserve" text-anchor="start" x="289.86" y="-245.7" font-family="Times,serif" font-size="14.00">role_id : int</text>
<text xml:space="preserve" text-anchor="start" x="289.86" y="-228.9" font-family="Times,serif" font-size="14.00"> username : varchar(100)</text>
<text xml:space="preserve" text-anchor="start" x="289.86" y="-212.1" font-family="Times,serif" font-size="14.00"> email : varchar(150)</text>
<text xml:space="preserve" text-anchor="start" x="289.86" y="-195.3" font-family="Times,serif" font-size="14.00"> password_hash : varchar(255)</text>
<text xml:space="preserve" text-anchor="start" x="289.86" y="-178.5" font-family="Times,serif" font-size="14.00"> full_name : varchar(150)</text>
<text xml:space="preserve" text-anchor="start" x="289.86" y="-161.7" font-family="Times,serif" font-size="14.00"> created_at : datetime</text>
<polyline fill="none" stroke="black" points="281.86,-153.5 470.08,-153.5"/>
<text xml:space="preserve" text-anchor="start" x="289.86" y="-136.9" font-family="Times,serif" font-size="14.00">id : int</text>
</g>
<!-- ANGAJAT&#45;&gt;USER -->
<g id="edge2" class="edge">
<title>ANGAJAT-&gt;USER</title>
<path fill="none" stroke="#595959" d="M77.97,-340.43C77.97,-283.34 77.97,-208 77.97,-208 77.97,-208 270.17,-208 270.17,-208"/>
<polygon fill="#595959" stroke="#595959" points="270.17,-211.5 280.17,-208 270.17,-204.5 270.17,-211.5"/>
<text xml:space="preserve" text-anchor="middle" x="105.97" y="-309.8" font-family="Times,serif" font-size="14.00">user_id:id</text>
</g>
<!-- ARTIST&#45;&gt;USER -->
<g id="edge3" class="edge">
<title>ARTIST-&gt;USER</title>
<path fill="none" stroke="#595959" d="M310.73,-340.67C310.73,-340.67 310.73,-298.86 310.73,-298.86"/>
<polygon fill="#595959" stroke="#595959" points="314.23,-298.86 310.73,-288.86 307.23,-298.86 314.23,-298.86"/>
<text xml:space="preserve" text-anchor="middle" x="308.97" y="-309.8" font-family="Times,serif" font-size="14.00">user_id:id</text>
</g>
<!-- BOOKING -->
<g id="node4" class="node">
<title>BOOKING</title>
<polygon fill="none" stroke="black" points="223.31,-519.5 223.31,-677.9 510.63,-677.9 510.63,-519.5 223.31,-519.5"/>
<text xml:space="preserve" text-anchor="middle" x="366.97" y="-661.3" font-family="Times,serif" font-size="14.00">BOOKING</text>
<polyline fill="none" stroke="black" points="223.31,-653.1 510.63,-653.1"/>
<text xml:space="preserve" text-anchor="start" x="231.31" y="-636.5" font-family="Times,serif" font-size="14.00">proiect_id : int</text>
<text xml:space="preserve" text-anchor="start" x="231.31" y="-619.7" font-family="Times,serif" font-size="14.00"> booked_by : int</text>
<text xml:space="preserve" text-anchor="start" x="231.31" y="-602.9" font-family="Times,serif" font-size="14.00"> booking_date : datetime</text>
<text xml:space="preserve" text-anchor="start" x="231.31" y="-586.1" font-family="Times,serif" font-size="14.00"> start_date : datetime</text>
<text xml:space="preserve" text-anchor="start" x="231.31" y="-569.3" font-family="Times,serif" font-size="14.00"> end_date : datetime</text>
<text xml:space="preserve" text-anchor="start" x="231.31" y="-552.5" font-family="Times,serif" font-size="14.00"> status : enum('pending', 'confirmed', 'cancelled')</text>
<polyline fill="none" stroke="black" points="223.31,-544.3 510.63,-544.3"/>
<text xml:space="preserve" text-anchor="start" x="231.31" y="-527.7" font-family="Times,serif" font-size="14.00">id : int</text>
</g>
<!-- PROIECT -->
<g id="node7" class="node">
<title>PROIECT</title>
<polygon fill="none" stroke="black" points="475.46,-340.9 475.46,-465.7 608.47,-465.7 608.47,-340.9 475.46,-340.9"/>
<text xml:space="preserve" text-anchor="middle" x="541.97" y="-449.1" font-family="Times,serif" font-size="14.00">PROIECT</text>
<polyline fill="none" stroke="black" points="475.46,-440.9 608.47,-440.9"/>
<text xml:space="preserve" text-anchor="start" x="483.46" y="-424.3" font-family="Times,serif" font-size="14.00">title : varchar(200)</text>
<text xml:space="preserve" text-anchor="start" x="483.46" y="-407.5" font-family="Times,serif" font-size="14.00"> created_by : int</text>
<text xml:space="preserve" text-anchor="start" x="483.46" y="-390.7" font-family="Times,serif" font-size="14.00"> start_date : datetime</text>
<text xml:space="preserve" text-anchor="start" x="483.46" y="-373.9" font-family="Times,serif" font-size="14.00"> end_date : datetime</text>
<polyline fill="none" stroke="black" points="475.46,-365.7 608.47,-365.7"/>
<text xml:space="preserve" text-anchor="start" x="483.46" y="-349.1" font-family="Times,serif" font-size="14.00">id : int</text>
</g>
<!-- BOOKING&#45;&gt;PROIECT -->
<g id="edge4" class="edge">
<title>BOOKING-&gt;PROIECT</title>
<path fill="none" stroke="#595959" d="M493.05,-519.22C493.05,-519.22 493.05,-477.45 493.05,-477.45"/>
<polygon fill="#595959" stroke="#595959" points="496.55,-477.45 493.05,-467.45 489.55,-477.45 496.55,-477.45"/>
<text xml:space="preserve" text-anchor="middle" x="474.74" y="-488.4" font-family="Times,serif" font-size="14.00">proiect_id:id</text>
</g>
<!-- BOOKING&#45;&gt;USER -->
<g id="edge5" class="edge">
<title>BOOKING-&gt;USER</title>
<path fill="none" stroke="#595959" d="M383.09,-519.14C383.09,-519.14 383.09,-298.86 383.09,-298.86"/>
<polygon fill="#595959" stroke="#595959" points="386.59,-298.86 383.09,-288.86 379.59,-298.86 386.59,-298.86"/>
<text xml:space="preserve" text-anchor="middle" x="414.47" y="-399.1" font-family="Times,serif" font-size="14.00">booked_by:id</text>
</g>
<!-- MESAJ -->
<g id="node5" class="node">
<title>MESAJ</title>
<polygon fill="none" stroke="black" points="483.31,-740.1 483.31,-881.7 660.63,-881.7 660.63,-740.1 483.31,-740.1"/>
<text xml:space="preserve" text-anchor="middle" x="571.97" y="-865.1" font-family="Times,serif" font-size="14.00">MESAJ</text>
<polyline fill="none" stroke="black" points="483.31,-856.9 660.63,-856.9"/>
<text xml:space="preserve" text-anchor="start" x="491.31" y="-840.3" font-family="Times,serif" font-size="14.00">sender_name : varchar(150)</text>
<text xml:space="preserve" text-anchor="start" x="491.31" y="-823.5" font-family="Times,serif" font-size="14.00"> sender_email : varchar(150)</text>
<text xml:space="preserve" text-anchor="start" x="491.31" y="-806.7" font-family="Times,serif" font-size="14.00"> subject : varchar(200)</text>
<text xml:space="preserve" text-anchor="start" x="491.31" y="-789.9" font-family="Times,serif" font-size="14.00"> body : text</text>
<text xml:space="preserve" text-anchor="start" x="491.31" y="-773.1" font-family="Times,serif" font-size="14.00"> sent_at : datetime</text>
<polyline fill="none" stroke="black" points="483.31,-764.9 660.63,-764.9"/>
<text xml:space="preserve" text-anchor="start" x="491.31" y="-748.3" font-family="Times,serif" font-size="14.00">id : int</text>
</g>
<!-- PIESA -->
<g id="node6" class="node">
<title>PIESA</title>
<polygon fill="none" stroke="black" points="212.81,-731.7 212.81,-890.1 465.13,-890.1 465.13,-731.7 212.81,-731.7"/>
<text xml:space="preserve" text-anchor="middle" x="338.97" y="-873.5" font-family="Times,serif" font-size="14.00">PIESA</text>
<polyline fill="none" stroke="black" points="212.81,-865.3 465.13,-865.3"/>
<text xml:space="preserve" text-anchor="start" x="220.81" y="-848.7" font-family="Times,serif" font-size="14.00">proiect_id : int</text>
<text xml:space="preserve" text-anchor="start" x="220.81" y="-831.9" font-family="Times,serif" font-size="14.00"> album_id : int</text>
<text xml:space="preserve" text-anchor="start" x="220.81" y="-815.1" font-family="Times,serif" font-size="14.00"> title : varchar(200)</text>
<text xml:space="preserve" text-anchor="start" x="220.81" y="-798.3" font-family="Times,serif" font-size="14.00"> duration : int</text>
<text xml:space="preserve" text-anchor="start" x="220.81" y="-781.5" font-family="Times,serif" font-size="14.00"> release_date : datetime</text>
<text xml:space="preserve" text-anchor="start" x="220.81" y="-764.7" font-family="Times,serif" font-size="14.00"> status : enum('draft', 'released', 'archived')</text>
<polyline fill="none" stroke="black" points="212.81,-756.5 465.13,-756.5"/>
<text xml:space="preserve" text-anchor="start" x="220.81" y="-739.9" font-family="Times,serif" font-size="14.00">id : int</text>
</g>
<!-- PIESA&#45;&gt;ALBUM -->
<g id="edge6" class="edge">
<title>PIESA-&gt;ALBUM</title>
<path fill="none" stroke="#595959" d="M218.06,-731.39C218.06,-671.27 218.06,-599 218.06,-599 218.06,-599 216.72,-599 216.72,-599"/>
<polygon fill="#595959" stroke="#595959" points="216.72,-595.5 206.72,-599 216.72,-602.5 216.72,-595.5"/>
<text xml:space="preserve" text-anchor="middle" x="331.8" y="-700.6" font-family="Times,serif" font-size="14.00">album_id:id</text>
</g>
<!-- PIESA&#45;&gt;PROIECT -->
<g id="edge7" class="edge">
<title>PIESA-&gt;PROIECT</title>
<path fill="none" stroke="#595959" d="M465.44,-735C507.23,-735 543.25,-735 543.25,-735 543.25,-735 543.25,-477.59 543.25,-477.59"/>
<polygon fill="#595959" stroke="#595959" points="546.75,-477.59 543.25,-467.59 539.75,-477.59 546.75,-477.59"/>
<text xml:space="preserve" text-anchor="middle" x="582.74" y="-594.5" font-family="Times,serif" font-size="14.00">proiect_id:id</text>
</g>
<!-- PROIECT&#45;&gt;USER -->
<g id="edge8" class="edge">
<title>PROIECT-&gt;USER</title>
<path fill="none" stroke="#595959" d="M475.19,-403C449.67,-403 426.59,-403 426.59,-403 426.59,-403 426.59,-299.05 426.59,-299.05"/>
<polygon fill="#595959" stroke="#595959" points="430.09,-299.05 426.59,-289.05 423.09,-299.05 430.09,-299.05"/>
<text xml:space="preserve" text-anchor="middle" x="507.06" y="-309.8" font-family="Times,serif" font-size="14.00">created_by:id</text>
</g>
<!-- PROIECT_USER -->
<g id="node8" class="node">
<title>PROIECT_USER</title>
<polygon fill="none" stroke="black" points="636.41,-565.5 636.41,-631.9 753.53,-631.9 753.53,-565.5 636.41,-565.5"/>
<text xml:space="preserve" text-anchor="middle" x="694.97" y="-615.3" font-family="Times,serif" font-size="14.00">PROIECT_USER</text>
<polyline fill="none" stroke="black" points="636.41,-607.1 753.53,-607.1"/>
<text xml:space="preserve" text-anchor="start" x="644.41" y="-590.5" font-family="Times,serif" font-size="14.00">proiect_id : int</text>
<text xml:space="preserve" text-anchor="start" x="644.41" y="-573.7" font-family="Times,serif" font-size="14.00"> user_id : int</text>
</g>
<!-- PROIECT_USER&#45;&gt;PROIECT -->
<g id="edge9" class="edge">
<title>PROIECT_USER-&gt;PROIECT</title>
<path fill="none" stroke="#595959" d="M636.11,-599C606.1,-599 575.86,-599 575.86,-599 575.86,-599 575.86,-477.54 575.86,-477.54"/>
<polygon fill="#595959" stroke="#595959" points="579.36,-477.54 575.86,-467.54 572.36,-477.54 579.36,-477.54"/>
<text xml:space="preserve" text-anchor="middle" x="629.74" y="-488.4" font-family="Times,serif" font-size="14.00">proiect_id:id</text>
</g>
<!-- PROIECT_USER&#45;&gt;USER -->
<g id="edge10" class="edge">
<title>PROIECT_USER-&gt;USER</title>
<path fill="none" stroke="#595959" d="M694.97,-565.05C694.97,-470.28 694.97,-208 694.97,-208 694.97,-208 481.9,-208 481.9,-208"/>
<polygon fill="#595959" stroke="#595959" points="481.9,-204.5 471.9,-208 481.9,-211.5 481.9,-204.5"/>
<text xml:space="preserve" text-anchor="middle" x="715.97" y="-399.1" font-family="Times,serif" font-size="14.00">user_id:id</text>
</g>
<!-- ROLE -->
<g id="node9" class="node">
<title>ROLE</title>
<polygon fill="none" stroke="black" points="314.72,-0.5 314.72,-74.9 437.22,-74.9 437.22,-0.5 314.72,-0.5"/>
<text xml:space="preserve" text-anchor="middle" x="375.97" y="-58.3" font-family="Times,serif" font-size="14.00">ROLE</text>
<polyline fill="none" stroke="black" points="314.72,-50.1 437.22,-50.1"/>
<text xml:space="preserve" text-anchor="start" x="322.72" y="-33.5" font-family="Times,serif" font-size="14.00">name : varchar(50)</text>
<polyline fill="none" stroke="black" points="314.72,-25.3 437.22,-25.3"/>
<text xml:space="preserve" text-anchor="start" x="322.72" y="-8.7" font-family="Times,serif" font-size="14.00">id : int</text>
</g>
<!-- USER&#45;&gt;ROLE -->
<g id="edge11" class="edge">
<title>USER-&gt;ROLE</title>
<path fill="none" stroke="#595959" d="M375.97,-128.28C375.97,-128.28 375.97,-86.73 375.97,-86.73"/>
<polygon fill="#595959" stroke="#595959" points="379.47,-86.73 375.97,-76.73 372.47,-86.73 379.47,-86.73"/>
<text xml:space="preserve" text-anchor="middle" x="403.19" y="-97.6" font-family="Times,serif" font-size="14.00">role_id:id</text>
</g>
</g>
</svg>